<?xml version="1.0" encoding="utf-8"?>
<!-- Generator: Adobe Illustrator 24.0.0, SVG Export Plug-In . SVG Version: 6.00 Build 0)  -->
<svg version="1.1" id="Layer_1" xmlns="http://www.w3.org/2000/svg" xmlns:xlink="http://www.w3.org/1999/xlink" x="0px" y="0px"
	 viewBox="0 0 256 256" enable-background="new 0 0 256 256" xml:space="preserve">
<g>
</g>
<g>
	<path fill="#EEEEEE" d="M193.936,124.2l-11.14,4.7c-1.27,0.53-2.7,0.44-3.88-0.26l-31.54-18.47c-0.8-0.46-1.42-1.17-1.79-2.02
		l-3.65-8.45l-2.77-6.42c3.7-1.65,6.97-4.36,9.31-8.03l5.79,3.93l40.42,27.43C197.536,118.54,197.106,122.87,193.936,124.2z"/>
	<path fill="#EEEEEE" d="M122.176,53.92c-3.69,1.53-6.85,4.07-9.16,7.26l-5.78-3.92l-41.11-27.9c-2.85-1.93-2.42-6.26,0.75-7.6
		l11.14-4.69c1.27-0.54,2.7-0.44,3.88,0.25l31.54,18.48c0.8,0.47,1.42,1.17,1.79,2.02l4.17,9.66L122.176,53.92z"/>
	<path fill="#EEEEEE" d="M186.066,24.48l-18.47,31.54c-0.47,0.8-1.18,1.42-2.03,1.79l-9.36,4.04l-6.4,2.76
		c-1.7-3.63-4.37-6.69-7.7-8.85l3.94-5.8l27.99-41.26c1.93-2.85,6.25-2.41,7.59,0.76l4.7,11.14
		C186.846,21.86,186.756,23.3,186.066,24.48z"/>
	<path fill="#EEEEEE" d="M118.026,91.23l-3.93,5.79l-27.32,40.25c-1.93,2.85-6.25,2.42-7.59-0.76l-4.7-11.14
		c-0.52-1.26-0.43-2.7,0.26-3.88l18.47-31.53c0.47-0.8,1.18-1.43,2.03-1.8l8.79-3.8l6.43-2.77
		C112.006,85.49,114.656,88.84,118.026,91.23z"/>
	<path fill="#AEAEAE" d="M118.026,91.23l-3.93,5.79c-4.37-3.05-7.92-7.37-10.06-12.66l6.43-2.77
		C112.006,85.49,114.656,88.84,118.026,91.23z"/>
	<path fill="#AEAEAE" d="M119.396,47.48l2.78,6.44c-3.69,1.53-6.85,4.07-9.16,7.26l-5.78-3.92
		C110.256,53,114.436,49.56,119.396,47.48z"/>
	<path fill="#AEAEAE" d="M148.476,85.25l5.79,3.93c-3.08,4.77-7.49,8.42-12.33,10.52l-2.77-6.42
		C142.866,91.63,146.136,88.92,148.476,85.25z"/>
	<path fill="#AEAEAE" d="M142.106,55.76l3.94-5.8c4.45,2.95,7.95,7.12,10.16,11.89l-6.4,2.76
		C148.106,60.98,145.436,57.92,142.106,55.76z"/>
	<path fill="#EFBF27" d="M148.476,85.25c-2.34,3.67-5.61,6.38-9.31,8.03c-0.23,0.1-0.46,0.2-0.69,0.29
		c-5.09,2.08-10.9,2.16-16.15,0.02c-1.49-0.61-2.93-1.39-4.3-2.36c-3.37-2.39-6.02-5.74-7.56-9.64c-2.63-6.62-1.8-14.37,2.55-20.41
		c2.31-3.19,5.47-5.73,9.16-7.26c6.36-2.66,13.88-2.12,19.93,1.84c3.33,2.16,6,5.22,7.7,8.85
		C152.896,71.18,152.476,79,148.476,85.25z"/>
	<circle fill="#72C2E9" cx="130.406" cy="73.723" r="10.13"/>
	<path fill="#72C2E9" d="M145.456,249.2h-30.1l6.64-148.31l0.33-7.3c5.25,2.14,11.06,2.06,16.15-0.02l0.33,7.3L145.456,249.2z"/>
	<path fill="#4BA4C7" d="M138.806,100.87c-5.46,1.71-11.33,1.72-16.81,0.02l0.33-7.3c5.25,2.14,11.06,2.06,16.15-0.02
		L138.806,100.87z"/>
	<path d="M212.996,84.29h23.04c2.88,0.01,5.23,2.35,5.23,5.23s-2.35,5.23-5.23,5.24h-3.56c-1.38,0-2.5,1.12-2.5,2.5
		c0,1.37,1.12,2.5,2.5,2.5h3.56c5.64-0.01,10.23-4.6,10.23-10.24c0-5.64-4.59-10.23-10.23-10.23h-23.04c-1.38,0-2.5,1.12-2.5,2.5
		C210.496,83.17,211.616,84.29,212.996,84.29z"/>
	<path d="M236.036,63.16h-23.04c-1.38,0-2.5,1.12-2.5,2.5c0,1.37,1.12,2.5,2.5,2.5c0,0,0.01,0,0.01-0.01h23.03
		c5.64,0,10.23-4.59,10.23-10.23s-4.59-10.23-10.23-10.23h-3.56c-1.38,0-2.5,1.12-2.5,2.5s1.12,2.5,2.5,2.5h3.56
		c2.88,0,5.23,2.35,5.23,5.23S238.916,63.15,236.036,63.16z"/>
	<path d="M9.073,96.358h32.613c6.594,0,11.959,5.365,11.959,11.959c0,6.595-5.365,11.96-11.959,11.96s-11.959-5.365-11.959-11.96
		c0-1.381-1.119-2.5-2.5-2.5s-2.5,1.119-2.5,2.5c0,9.352,7.608,16.96,16.959,16.96s16.959-7.608,16.959-16.96
		s-7.608-16.959-16.959-16.959H9.073c-1.381,0-2.5,1.119-2.5,2.5S7.692,96.358,9.073,96.358z"/>
	<path d="M41.686,51.088H9.073c-1.381,0-2.5,1.119-2.5,2.5s1.119,2.5,2.5,2.5h32.613c9.352,0,16.959-7.608,16.959-16.96
		s-7.608-16.959-16.959-16.959s-16.959,7.608-16.959,16.959c0,1.381,1.119,2.5,2.5,2.5s2.5-1.119,2.5-2.5
		c0-6.594,5.365-11.959,11.959-11.959s11.959,5.365,11.959,11.959C53.646,45.723,48.28,51.088,41.686,51.088z"/>
	<path d="M50.74,64.499H29.406c-1.381,0-2.5,1.119-2.5,2.5s1.119,2.5,2.5,2.5H50.74c1.381,0,2.5-1.119,2.5-2.5
		S52.121,64.499,50.74,64.499z"/>
	<path d="M50.74,77.946H29.406c-1.381,0-2.5,1.119-2.5,2.5s1.119,2.5,2.5,2.5H50.74c1.381,0,2.5-1.119,2.5-2.5
		S52.121,77.946,50.74,77.946z"/>
	<path d="M163.926,119.86c-0.686,1.149-0.342,2.698,0.89,3.42c1.208,0.699,2.729,0.278,3.42-0.89c0.705-1.201,0.284-2.74-0.89-3.42
		C166.186,118.29,164.596,118.72,163.926,119.86z"/>
	<path d="M101.346,28.71c0.691-1.192,0.302-2.715-0.9-3.42c-1.15-0.67-2.75-0.25-3.42,0.9c-0.684,1.147-0.325,2.702,0.9,3.42
		C99.143,30.315,100.663,29.879,101.346,28.71z"/>
	<path d="M130.406,61.093c-6.964,0-12.63,5.666-12.63,12.63s5.666,12.63,12.63,12.63s12.63-5.666,12.63-12.63
		S137.371,61.093,130.406,61.093z M130.406,81.353c-4.208,0-7.63-3.423-7.63-7.63c0-4.207,3.423-7.63,7.63-7.63
		s7.63,3.423,7.63,7.63C138.037,77.93,134.614,81.353,130.406,81.353z"/>
	<path d="M116.626,220.73c0.04,0,0.08,0,0.11,0c1.35,0,2.44-1.05,2.5-2.39c0.07-1.37-1-2.54-2.38-2.61
		c-1.4-0.06-2.55,1.01-2.61,2.39C114.183,219.541,115.286,220.668,116.626,220.73z"/>
	<path d="M112.963,246.695H13.885c-1.381,0-2.5,1.119-2.5,2.5s1.119,2.5,2.5,2.5c13.815,0,219.235,0,233.042,0
		c1.381,0,2.5-1.119,2.5-2.5s-1.119-2.5-2.5-2.5h-99.081l-6.354-141.726l1.803,4.171c0.58,1.34,1.59,2.48,2.83,3.2h0.01l10.05,5.89
		c1.15,0.67,2.75,0.25,3.42-0.9c0.705-1.181,0.285-2.724-0.88-3.41c-0.01,0-0.01-0.01-0.01-0.01l-10.08-5.9l-0.01-0.01
		c-0.33-0.19-0.59-0.48-0.75-0.85l-5.49-12.71c2.635-1.518,4.99-3.608,6.7-5.75c23.376,15.86,33.73,22.886,44.2,29.99
		c1.195,0.828,1.024,2.625-0.32,3.22l-11.14,4.7c-0.565,0.221-1.138,0.177-1.64-0.11l-4.21-2.47c-1.16-0.68-2.76-0.25-3.43,0.89
		c-0.724,1.274-0.236,2.774,0.9,3.42l4.21,2.47c1.834,1.075,4.062,1.25,6.1,0.41l11.15-4.71c5.031-2.104,5.647-8.974,1.18-11.96
		l-8.906-6.044c6.415-10.45,9.794-22.419,9.794-34.773c0-1.381-1.119-2.5-2.5-2.5s-2.5,1.119-2.5,2.5
		c0,11.35-3.085,22.344-8.939,31.96l-11.692-7.935c2.721-4.629,4.622-9.663,5.656-15.001c0.262-1.355-0.624-2.667-1.979-2.93
		c-1.354-0.261-2.667,0.623-2.93,1.979c-0.904,4.668-2.554,9.072-4.898,13.134l-15.409-10.458c2.923-5.774,3.37-12.418,1.251-18.532
		l13.532-5.839c1.347-0.587,2.449-1.561,3.188-2.819l18.47-31.54c0,0,0,0,0.001-0.001c1.075-1.838,1.229-4.117,0.405-6.114
		l-4.701-11.142c-2.107-4.987-8.923-5.675-11.961-1.19l-6.619,9.756c-10.49-6.483-22.517-9.897-34.942-9.897
		c-1.381,0-2.5,1.119-2.5,2.5s1.119,2.5,2.5,2.5c11.42,0,22.474,3.121,32.13,9.042l-7.93,11.688
		c-4.663-2.771-9.756-4.708-15.176-5.761c-1.354-0.261-2.668,0.622-2.931,1.977s0.622,2.668,1.977,2.931
		c4.752,0.923,9.217,2.608,13.314,5.003l-10.448,15.399c-5.5-2.841-11.874-3.431-17.791-1.65l-6.024-13.955
		c-0.58-1.33-1.58-2.46-2.82-3.19l-5.63-3.29c-1.15-0.68-2.75-0.25-3.42,0.89c-0.7,1.19-0.29,2.73,0.89,3.42l5.63,3.3
		c0.34,0.2,0.59,0.48,0.76,0.86l5.99,13.89c-2.293,1.252-4.534,3.001-6.41,5.11l-44.99-30.53c-1.188-0.808-1.036-2.63,0.32-3.23
		l11.14-4.69c0.55-0.23,1.14-0.19,1.65,0.11l8.66,5.07c1.15,0.68,2.75,0.25,3.42-0.89c0.7-1.19,0.29-2.73-0.89-3.42l-8.67-5.08
		c-1.84-1.08-4.15-1.23-6.12-0.39l-11.13,4.69c-5.051,2.111-5.636,8.991-1.18,11.97l9.56,6.487
		c-5.761,9.019-9.278,19.342-10.198,30.017c-0.119,1.376,0.9,2.587,2.276,2.706c0.073,0.006,0.146,0.009,0.218,0.009
		c1.284,0,2.375-0.983,2.488-2.285c0.847-9.825,4.074-19.326,9.357-27.637l11.677,7.924c-3.064,4.906-5.178,10.295-6.289,16.056
		c-0.262,1.355,0.625,2.667,1.981,2.928c1.345,0.262,2.665-0.618,2.928-1.981c0.982-5.088,2.84-9.849,5.524-14.19l15.364,10.426
		c-3.092,5.47-3.967,12.13-2.236,18.313l-13.127,5.666c-1.342,0.584-2.444,1.562-3.188,2.828l-18.471,31.532
		c-1.075,1.838-1.229,4.117-0.405,6.114l4.7,11.139c2.105,4.995,8.917,5.691,11.962,1.193l5.919-8.72
		c7.075,4.496,14.863,7.577,23.022,9.141l-3.089,69.035c-0.064,1.41,1.028,2.55,2.38,2.61c0.04,0,0.08,0,0.12,0
		c1.33,0,2.43-1.05,2.49-2.39l3.069-68.496c2.526,0.289,5.079,0.436,7.651,0.436c1.381,0,2.5-1.119,2.5-2.5s-1.119-2.5-2.5-2.5
		c-2.498,0-4.976-0.155-7.426-0.449l0.634-14.157c0.887,0.13,1.776,0.248,2.672,0.329c1.384,0.124,2.591-0.896,2.715-2.264
		c0.125-1.375-0.889-2.591-2.264-2.715c-0.973-0.088-1.939-0.213-2.899-0.365c0.772-17.228,0.603-13.477,0.84-18.716
		c3.778,0.937,7.404,0.999,11.445-0.013l6.717,149.757h-24.868l0.823-18.365c0.06-1.37-1.01-2.54-2.39-2.61
		c-1.39-0.06-2.55,1.01-2.61,2.39L112.963,246.695z M176.106,10.102c0.817-1.206,2.647-1.017,3.217,0.33l4.692,11.122
		c0.224,0.543,0.185,1.165-0.106,1.663l-18.468,31.537c-0.199,0.338-0.5,0.603-0.865,0.761l-13.646,5.889
		c-1.335-2.234-3.209-4.457-5.397-6.237L176.106,10.102z M84.707,135.868c-0.814,1.202-2.643,1.031-3.217-0.33l-4.692-11.123
		c-0.225-0.543-0.185-1.166,0.106-1.662l18.468-31.527c0.204-0.347,0.506-0.615,0.867-0.772l12.976-5.603
		c1.389,2.647,3.345,5.07,5.438,6.897C108.232,101.208,91.885,125.292,84.707,135.868z M118.012,134.034
		c-7.233-1.476-14.14-4.241-20.437-8.221l7.935-11.69c4.059,2.498,8.497,4.361,13.145,5.551L118.012,134.034z M118.882,114.574
		c-3.724-1.05-7.282-2.591-10.566-4.588l10.425-15.359c0.331,0.185,0.669,0.359,1.009,0.529L118.882,114.574z M130.406,92.662
		c-11.987,0.28-18.758-9.83-18.948-18.513c-0.222-10.142,7.919-19.382,18.946-19.382c11.116,0,18.909,9.143,18.953,18.956
		C149.409,85.297,139.959,92.439,130.406,92.662z"/>
	<path fill="#C5E5FE" d="M134.996,241.7c-1.329,0-2.436-1.047-2.496-2.388l-3.419-76.263c-0.062-1.379,1.006-2.547,2.386-2.609
		c1.377-0.055,2.548,1.006,2.609,2.386l3.419,76.263c0.062,1.379-1.006,2.547-2.386,2.609
		C135.071,241.699,135.033,241.7,134.996,241.7z M131.129,155.447c-1.329,0-2.436-1.047-2.496-2.388l-0.134-2.997
		c-0.062-1.379,1.006-2.547,2.386-2.609c1.374-0.061,2.547,1.006,2.609,2.386l0.134,2.997
		C133.692,154.255,132.56,155.447,131.129,155.447z"/>
</g>
</svg>
